# xmcd
#
# Track frame offsets: 
#        182
#        46607
#        64505
#        84007
#        116825
#        137760
#        155602
#        174350
#        193092
#        213047
#        245477
#        265487
#        286720
#        301272
#        323592
#
# Disc length: 4550 seconds
#
# Revision: 2
# Processed by: cddbd v1.5.2PL0 Copyright (c) Steve Scherf et al.
# Submitted via: ExactAudioCopy v0.95b4
#
DISCID=c211c40f
DTITLE=Albert King - The Ultimate Collection [CD2 of 2)
DYEAR=1993
DGENRE=Blues
TTITLE0=Blues Power (live)
TTITLE1=She Caught The Katy And Left Me A Mule To Ride
TTITLE2=Angel Of Mercy
TTITLE3=I'll Play The Blues For You (parts 1 and 2)
TTITLE4=Answer To The Laundromat Blues
TTITLE5=Breaking Up Somebody's Home
TTITLE6=I wanna Get Funky
TTITLE7=Cold Women With Warm Hearts
TTITLE8=Cadillac Assembly Line
TTITLE9=Ain't Nothing You Can Do
TTITLE10=Call My Job
TTITLE11=Good Time Charlie
TTITLE12=We All Wanna Boogie
TTITLE13=The Feeling
TTITLE14=Phone Booth
EXTD=
EXTT0=
EXTT1=
EXTT2=
EXTT3=
EXTT4=
EXTT5=
EXTT6=
EXTT7=
EXTT8=
EXTT9=
EXTT10=
EXTT11=
EXTT12=
EXTT13=
EXTT14=
PLAYORDER=
